STARTFONT 2.1
FONT -DEC-Terminal-Bold-R-Narrow--14-140-75-75-C-60-iso8859-4
SIZE 14 75 75
FONTBOUNDINGBOX 6 15 0 -3

STARTPROPERTIES 24
FOUNDRY "Monotype"
FAMILY_NAME "VT"
WEIGHT_NAME "Bold"
SLANT "R"
SETWIDTH_NAME "Narrow"
ADD_STYLE_NAME ""
PIXEL_SIZE 14
POINT_SIZE 140
RESOLUTION_X 75
RESOLUTION_Y 75
SPACING "C"
AVERAGE_WIDTH 60
CHARSET_REGISTRY "iso8859"
CHARSET_ENCODING "4"
FACE_NAME "VT Narrow Bold ISO Latin4"
_DEC_DEVICE_FONTNAMES "PS=vt-narrow-bold-isolatin4"
COPYRIGHT "Copyright (c) 1993 Monotype Typography Ltd."
CAP_HEIGHT 8
X_HEIGHT 6
WEIGHT 10
QUAD_WIDTH 6
DEFAULT_CHAR 160
FONT_DESCENT 3
FONT_ASCENT 12
ENDPROPERTIES

CHARS 191

STARTCHAR space
ENCODING 32
SWIDTH 361 0
DWIDTH 6 0
BBX 6 15 0 -3
BITMAP
00
00
00
00
00
00
00
00
00
00
00
00
00
00
00
ENDCHAR

STARTCHAR exclam
ENCODING 33
SWIDTH 361 0
DWIDTH 6 0
BBX 6 15 0 -3
BITMAP
00
00
00
30
30
30
30
30
30
00
30
30
00
00
00
ENDCHAR

STARTCHAR quotedbl
ENCODING 34
SWIDTH 361 0
DWIDTH 6 0
BBX 6 15 0 -3
BITMAP
00
00
6C
6C
6C
00
00
00
00
00
00
00
00
00
00
ENDCHAR

STARTCHAR numbersign
ENCODING 35
SWIDTH 361 0
DWIDTH 6 0
BBX 6 15 0 -3
BITMAP
00
00
00
28
7C
7C
28
28
7C
7C
28
00
00
00
00
ENDCHAR

STARTCHAR dollar
ENCODING 36
SWIDTH 361 0
DWIDTH 6 0
BBX 6 15 0 -3
BITMAP
00
00
00
10
38
6C
60
38
0C
6C
38
10
00
00
00
ENDCHAR

STARTCHAR percent
ENCODING 37
SWIDTH 361 0
DWIDTH 6 0
BBX 6 15 0 -3
BITMAP
00
00
00
4C
EC
58
18
30
60
68
DC
C8
00
00
00
ENDCHAR

STARTCHAR ampersand
ENCODING 38
SWIDTH 361 0
DWIDTH 6 0
BBX 6 15 0 -3
BITMAP
00
00
00
00
30
68
68
38
6C
6C
6C
3C
00
00
00
ENDCHAR

STARTCHAR quoteright
ENCODING 39
SWIDTH 361 0
DWIDTH 6 0
BBX 6 15 0 -3
BITMAP
00
00
18
18
30
00
00
00
00
00
00
00
00
00
00
ENDCHAR

STARTCHAR parenleft
ENCODING 40
SWIDTH 361 0
DWIDTH 6 0
BBX 6 15 0 -3
BITMAP
00
00
18
30
30
60
60
60
60
30
30
18
00
00
00
ENDCHAR

STARTCHAR parenright
ENCODING 41
SWIDTH 361 0
DWIDTH 6 0
BBX 6 15 0 -3
BITMAP
00
00
30
18
18
0C
0C
0C
0C
18
18
30
00
00
00
ENDCHAR

STARTCHAR asterisk
ENCODING 42
SWIDTH 354 0
DWIDTH 6 0
BBX 6 15 0 -3
BITMAP
00
00
00
10
54
38
38
38
54
10
00
00
00
00
00
ENDCHAR

STARTCHAR plus
ENCODING 43
SWIDTH 361 0
DWIDTH 6 0
BBX 6 15 0 -3
BITMAP
00
00
00
00
00
30
30
78
78
30
30
00
00
00
00
ENDCHAR

STARTCHAR comma
ENCODING 44
SWIDTH 361 0
DWIDTH 6 0
BBX 6 15 0 -3
BITMAP
00
00
00
00
00
00
00
00
00
00
30
30
60
00
00
ENDCHAR

STARTCHAR minus
ENCODING 45
SWIDTH 361 0
DWIDTH 6 0
BBX 6 15 0 -3
BITMAP
00
00
00
00
00
00
00
78
78
00
00
00
00
00
00
ENDCHAR

STARTCHAR period
ENCODING 46
SWIDTH 361 0
DWIDTH 6 0
BBX 6 15 0 -3
BITMAP
00
00
00
00
00
00
00
00
00
00
30
30
00
00
00
ENDCHAR

STARTCHAR slash
ENCODING 47
SWIDTH 361 0
DWIDTH 6 0
BBX 6 15 0 -3
BITMAP
00
00
0C
0C
18
18
30
30
60
60
C0
C0
00
00
00
ENDCHAR

STARTCHAR zero
ENCODING 48
SWIDTH 361 0
DWIDTH 6 0
BBX 6 15 0 -3
BITMAP
00
00
00
10
38
6C
6C
6C
6C
6C
38
10
00
00
00
ENDCHAR

STARTCHAR one
ENCODING 49
SWIDTH 361 0
DWIDTH 6 0
BBX 6 15 0 -3
BITMAP
00
00
00
10
30
70
30
30
30
30
30
78
00
00
00
ENDCHAR

STARTCHAR two
ENCODING 50
SWIDTH 361 0
DWIDTH 6 0
BBX 6 15 0 -3
BITMAP
00
00
00
38
6C
6C
0C
1C
38
70
60
7C
00
00
00
ENDCHAR

STARTCHAR three
ENCODING 51
SWIDTH 361 0
DWIDTH 6 0
BBX 6 15 0 -3
BITMAP
00
00
00
38
6C
6C
0C
18
0C
6C
6C
38
00
00
00
ENDCHAR

STARTCHAR four
ENCODING 52
SWIDTH 361 0
DWIDTH 6 0
BBX 6 15 0 -3
BITMAP
00
00
00
08
18
18
38
38
58
7C
18
18
00
00
00
ENDCHAR

STARTCHAR five
ENCODING 53
SWIDTH 361 0
DWIDTH 6 0
BBX 6 15 0 -3
BITMAP
00
00
00
7C
60
60
78
6C
0C
6C
6C
38
00
00
00
ENDCHAR

STARTCHAR six
ENCODING 54
SWIDTH 361 0
DWIDTH 6 0
BBX 6 15 0 -3
BITMAP
00
00
00
38
6C
60
78
6C
6C
6C
6C
38
00
00
00
ENDCHAR

STARTCHAR seven
ENCODING 55
SWIDTH 361 0
DWIDTH 6 0
BBX 6 15 0 -3
BITMAP
00
00
00
7C
0C
0C
18
18
30
30
30
30
00
00
00
ENDCHAR

STARTCHAR eight
ENCODING 56
SWIDTH 361 0
DWIDTH 6 0
BBX 6 15 0 -3
BITMAP
00
00
00
38
6C
6C
6C
38
6C
6C
6C
38
00
00
00
ENDCHAR

STARTCHAR nine
ENCODING 57
SWIDTH 361 0
DWIDTH 6 0
BBX 6 15 0 -3
BITMAP
00
00
00
38
6C
6C
6C
6C
3C
0C
6C
38
00
00
00
ENDCHAR

STARTCHAR colon
ENCODING 58
SWIDTH 361 0
DWIDTH 6 0
BBX 6 15 0 -3
BITMAP
00
00
00
00
00
30
30
00
00
00
30
30
00
00
00
ENDCHAR

STARTCHAR semicolon
ENCODING 59
SWIDTH 361 0
DWIDTH 6 0
BBX 6 15 0 -3
BITMAP
00
00
00
00
00
30
30
00
00
00
30
30
60
00
00
ENDCHAR

STARTCHAR less
ENCODING 60
SWIDTH 361 0
DWIDTH 6 0
BBX 6 15 0 -3
BITMAP
00
00
18
18
30
30
60
60
30
30
18
18
00
00
00
ENDCHAR

STARTCHAR equal
ENCODING 61
SWIDTH 361 0
DWIDTH 6 0
BBX 6 15 0 -3
BITMAP
00
00
00
00
00
78
78
00
78
78
00
00
00
00
00
ENDCHAR

STARTCHAR greater
ENCODING 62
SWIDTH 361 0
DWIDTH 6 0
BBX 6 15 0 -3
BITMAP
00
00
30
30
18
18
0C
0C
18
18
30
30
00
00
00
ENDCHAR

STARTCHAR question
ENCODING 63
SWIDTH 361 0
DWIDTH 6 0
BBX 6 15 0 -3
BITMAP
00
00
00
38
6C
6C
0C
18
10
00
18
18
00
00
00
ENDCHAR

STARTCHAR at
ENCODING 64
SWIDTH 361 0
DWIDTH 6 0
BBX 6 15 0 -3
BITMAP
00
00
00
38
64
64
7C
74
7C
68
60
3C
00
00
00
ENDCHAR

STARTCHAR A
ENCODING 65
SWIDTH 361 0
DWIDTH 6 0
BBX 6 15 0 -3
BITMAP
00
00
00
10
38
6C
6C
6C
7C
6C
6C
6C
00
00
00
ENDCHAR

STARTCHAR B
ENCODING 66
SWIDTH 361 0
DWIDTH 6 0
BBX 6 15 0 -3
BITMAP
00
00
00
78
6C
6C
6C
78
6C
6C
6C
78
00
00
00
ENDCHAR

STARTCHAR C
ENCODING 67
SWIDTH 361 0
DWIDTH 6 0
BBX 6 15 0 -3
BITMAP
00
00
00
38
6C
6C
60
60
60
6C
6C
38
00
00
00
ENDCHAR

STARTCHAR D
ENCODING 68
SWIDTH 361 0
DWIDTH 6 0
BBX 6 15 0 -3
BITMAP
00
00
00
78
6C
6C
6C
6C
6C
6C
6C
78
00
00
00
ENDCHAR

STARTCHAR E
ENCODING 69
SWIDTH 361 0
DWIDTH 6 0
BBX 6 15 0 -3
BITMAP
00
00
00
3C
30
30
30
38
30
30
30
3C
00
00
00
ENDCHAR

STARTCHAR F
ENCODING 70
SWIDTH 361 0
DWIDTH 6 0
BBX 6 15 0 -3
BITMAP
00
00
00
3C
30
30
30
38
30
30
30
30
00
00
00
ENDCHAR

STARTCHAR G
ENCODING 71
SWIDTH 361 0
DWIDTH 6 0
BBX 6 15 0 -3
BITMAP
00
00
00
38
6C
6C
60
6C
6C
6C
6C
3C
00
00
00
ENDCHAR

STARTCHAR H
ENCODING 72
SWIDTH 361 0
DWIDTH 6 0
BBX 6 15 0 -3
BITMAP
00
00
00
6C
6C
6C
6C
7C
6C
6C
6C
6C
00
00
00
ENDCHAR

STARTCHAR I
ENCODING 73
SWIDTH 361 0
DWIDTH 6 0
BBX 6 15 0 -3
BITMAP
00
00
00
3C
18
18
18
18
18
18
18
3C
00
00
00
ENDCHAR

STARTCHAR J
ENCODING 74
SWIDTH 361 0
DWIDTH 6 0
BBX 6 15 0 -3
BITMAP
00
00
00
1C
0C
0C
0C
0C
0C
6C
6C
38
00
00
00
ENDCHAR

STARTCHAR K
ENCODING 75
SWIDTH 361 0
DWIDTH 6 0
BBX 6 15 0 -3
BITMAP
00
00
00
6C
6C
6C
78
78
7C
6C
6C
6C
00
00
00
ENDCHAR

STARTCHAR L
ENCODING 76
SWIDTH 361 0
DWIDTH 6 0
BBX 6 15 0 -3
BITMAP
00
00
00
30
30
30
30
30
30
30
30
3C
00
00
00
ENDCHAR

STARTCHAR M
ENCODING 77
SWIDTH 361 0
DWIDTH 6 0
BBX 6 15 0 -3
BITMAP
00
00
00
6C
7C
7C
7C
6C
6C
6C
6C
6C
00
00
00
ENDCHAR

STARTCHAR N
ENCODING 78
SWIDTH 361 0
DWIDTH 6 0
BBX 6 15 0 -3
BITMAP
00
00
00
4C
6C
6C
7C
7C
7C
6C
6C
64
00
00
00
ENDCHAR

STARTCHAR O
ENCODING 79
SWIDTH 361 0
DWIDTH 6 0
BBX 6 15 0 -3
BITMAP
00
00
00
38
6C
6C
6C
6C
6C
6C
6C
38
00
00
00
ENDCHAR

STARTCHAR P
ENCODING 80
SWIDTH 361 0
DWIDTH 6 0
BBX 6 15 0 -3
BITMAP
00
00
00
78
6C
6C
6C
6C
6C
78
60
60
00
00
00
ENDCHAR

STARTCHAR Q
ENCODING 81
SWIDTH 361 0
DWIDTH 6 0
BBX 6 15 0 -3
BITMAP
00
00
00
38
6C
6C
6C
6C
6C
6C
6C
38
0C
00
00
ENDCHAR

STARTCHAR R
ENCODING 82
SWIDTH 361 0
DWIDTH 6 0
BBX 6 15 0 -3
BITMAP
00
00
00
78
6C
6C
6C
6C
78
6C
6C
6C
00
00
00
ENDCHAR

STARTCHAR S
ENCODING 83
SWIDTH 361 0
DWIDTH 6 0
BBX 6 15 0 -3
BITMAP
00
00
00
38
6C
60
78
3C
0C
6C
6C
38
00
00
00
ENDCHAR

STARTCHAR T
ENCODING 84
SWIDTH 361 0
DWIDTH 6 0
BBX 6 15 0 -3
BITMAP
00
00
00
78
30
30
30
30
30
30
30
30
00
00
00
ENDCHAR

STARTCHAR U
ENCODING 85
SWIDTH 361 0
DWIDTH 6 0
BBX 6 15 0 -3
BITMAP
00
00
00
6C
6C
6C
6C
6C
6C
6C
6C
38
00
00
00
ENDCHAR

STARTCHAR V
ENCODING 86
SWIDTH 361 0
DWIDTH 6 0
BBX 6 15 0 -3
BITMAP
00
00
00
6C
6C
6C
6C
6C
6C
6C
38
10
00
00
00
ENDCHAR

STARTCHAR W
ENCODING 87
SWIDTH 361 0
DWIDTH 6 0
BBX 6 15 0 -3
BITMAP
00
00
00
6C
6C
6C
6C
6C
7C
7C
7C
28
00
00
00
ENDCHAR

STARTCHAR X
ENCODING 88
SWIDTH 361 0
DWIDTH 6 0
BBX 6 15 0 -3
BITMAP
00
00
00
6C
6C
6C
38
10
38
6C
6C
6C
00
00
00
ENDCHAR

STARTCHAR Y
ENCODING 89
SWIDTH 355 0
DWIDTH 6 0
BBX 6 15 0 -3
BITMAP
00
00
00
6C
6C
6C
6C
3C
18
18
18
18
00
00
00
ENDCHAR

STARTCHAR Z
ENCODING 90
SWIDTH 361 0
DWIDTH 6 0
BBX 6 15 0 -3
BITMAP
00
00
00
7C
0C
0C
18
30
60
60
60
7C
00
00
00
ENDCHAR

STARTCHAR bracketleft
ENCODING 91
SWIDTH 361 0
DWIDTH 6 0
BBX 6 15 0 -3
BITMAP
00
00
3C
30
30
30
30
30
30
30
30
3C
00
00
00
ENDCHAR

STARTCHAR backslash
ENCODING 92
SWIDTH 361 0
DWIDTH 6 0
BBX 6 15 0 -3
BITMAP
00
00
C0
C0
60
60
30
30
18
18
0C
0C
00
00
00
ENDCHAR

STARTCHAR bracketright
ENCODING 93
SWIDTH 361 0
DWIDTH 6 0
BBX 6 15 0 -3
BITMAP
00
00
78
18
18
18
18
18
18
18
18
78
00
00
00
ENDCHAR

STARTCHAR asciicircum
ENCODING 94
SWIDTH 361 0
DWIDTH 6 0
BBX 6 15 0 -3
BITMAP
00
00
00
10
38
6C
00
00
00
00
00
00
00
00
00
ENDCHAR

STARTCHAR underscore
ENCODING 95
SWIDTH 361 0
DWIDTH 6 0
BBX 6 15 0 -3
BITMAP
00
00
00
00
00
00
00
00
00
00
7C
7C
00
00
00
ENDCHAR

STARTCHAR quoteleft
ENCODING 96
SWIDTH 361 0
DWIDTH 6 0
BBX 6 15 0 -3
BITMAP
00
00
30
30
18
00
00
00
00
00
00
00
00
00
00
ENDCHAR

STARTCHAR a
ENCODING 97
SWIDTH 361 0
DWIDTH 6 0
BBX 6 15 0 -3
BITMAP
00
00
00
00
00
38
4C
3C
6C
6C
6C
3C
00
00
00
ENDCHAR

STARTCHAR b
ENCODING 98
SWIDTH 361 0
DWIDTH 6 0
BBX 6 15 0 -3
BITMAP
00
00
00
60
60
78
6C
6C
6C
6C
6C
78
00
00
00
ENDCHAR

STARTCHAR c
ENCODING 99
SWIDTH 361 0
DWIDTH 6 0
BBX 6 15 0 -3
BITMAP
00
00
00
00
00
38
6C
6C
60
6C
6C
38
00
00
00
ENDCHAR

STARTCHAR d
ENCODING 100
SWIDTH 361 0
DWIDTH 6 0
BBX 6 15 0 -3
BITMAP
00
00
00
0C
0C
3C
6C
6C
6C
6C
6C
3C
00
00
00
ENDCHAR

STARTCHAR e
ENCODING 101
SWIDTH 361 0
DWIDTH 6 0
BBX 6 15 0 -3
BITMAP
00
00
00
00
00
38
6C
6C
7C
60
6C
38
00
00
00
ENDCHAR

STARTCHAR f
ENCODING 102
SWIDTH 361 0
DWIDTH 6 0
BBX 6 15 0 -3
BITMAP
00
00
00
18
34
30
78
30
30
30
30
30
00
00
00
ENDCHAR

STARTCHAR g
ENCODING 103
SWIDTH 361 0
DWIDTH 6 0
BBX 6 15 0 -3
BITMAP
00
00
00
00
00
3C
6C
6C
6C
6C
6C
3C
0C
38
00
ENDCHAR

STARTCHAR h
ENCODING 104
SWIDTH 361 0
DWIDTH 6 0
BBX 6 15 0 -3
BITMAP
00
00
00
60
60
78
6C
6C
6C
6C
6C
6C
00
00
00
ENDCHAR

STARTCHAR i
ENCODING 105
SWIDTH 350 0
DWIDTH 6 0
BBX 6 15 0 -3
BITMAP
00
00
18
18
00
38
18
18
18
18
18
3C
00
00
00
ENDCHAR

STARTCHAR j
ENCODING 106
SWIDTH 361 0
DWIDTH 6 0
BBX 6 15 0 -3
BITMAP
00
00
0C
0C
00
0C
0C
0C
0C
0C
0C
0C
38
00
00
ENDCHAR

STARTCHAR k
ENCODING 107
SWIDTH 361 0
DWIDTH 6 0
BBX 6 15 0 -3
BITMAP
00
00
00
C0
C0
CC
D8
F0
F0
F0
D8
CC
00
00
00
ENDCHAR

STARTCHAR l
ENCODING 108
SWIDTH 361 0
DWIDTH 6 0
BBX 6 15 0 -3
BITMAP
00
00
00
70
30
30
30
30
30
30
30
78
00
00
00
ENDCHAR

STARTCHAR m
ENCODING 109
SWIDTH 361 0
DWIDTH 6 0
BBX 6 15 0 -3
BITMAP
00
00
00
00
00
68
7C
7C
7C
54
54
44
00
00
00
ENDCHAR

STARTCHAR n
ENCODING 110
SWIDTH 361 0
DWIDTH 6 0
BBX 6 15 0 -3
BITMAP
00
00
00
00
00
68
7C
6C
6C
6C
6C
6C
00
00
00
ENDCHAR

STARTCHAR o
ENCODING 111
SWIDTH 361 0
DWIDTH 6 0
BBX 6 15 0 -3
BITMAP
00
00
00
00
00
38
6C
6C
6C
6C
6C
38
00
00
00
ENDCHAR

STARTCHAR p
ENCODING 112
SWIDTH 362 0
DWIDTH 6 0
BBX 6 15 0 -3
BITMAP
00
00
00
00
00
78
6C
6C
6C
6C
78
60
60
00
00
ENDCHAR

STARTCHAR q
ENCODING 113
SWIDTH 362 0
DWIDTH 6 0
BBX 6 15 0 -3
BITMAP
00
00
00
00
00
3C
6C
6C
6C
6C
3C
0C
0C
00
00
ENDCHAR

STARTCHAR r
ENCODING 114
SWIDTH 361 0
DWIDTH 6 0
BBX 6 15 0 -3
BITMAP
00
00
00
00
00
68
7C
6C
60
60
60
60
00
00
00
ENDCHAR

STARTCHAR s
ENCODING 115
SWIDTH 361 0
DWIDTH 6 0
BBX 6 15 0 -3
BITMAP
00
00
00
00
00
38
6C
60
38
0C
6C
38
00
00
00
ENDCHAR

STARTCHAR t
ENCODING 116
SWIDTH 361 0
DWIDTH 6 0
BBX 6 15 0 -3
BITMAP
00
00
00
30
30
78
30
30
30
34
34
18
00
00
00
ENDCHAR

STARTCHAR u
ENCODING 117
SWIDTH 361 0
DWIDTH 6 0
BBX 6 15 0 -3
BITMAP
00
00
00
00
00
6C
6C
6C
6C
6C
6C
38
00
00
00
ENDCHAR

STARTCHAR v
ENCODING 118
SWIDTH 361 0
DWIDTH 6 0
BBX 6 15 0 -3
BITMAP
00
00
00
00
00
6C
6C
6C
6C
6C
38
10
00
00
00
ENDCHAR

STARTCHAR w
ENCODING 119
SWIDTH 361 0
DWIDTH 6 0
BBX 6 15 0 -3
BITMAP
00
00
00
00
00
6C
6C
7C
7C
7C
7C
28
00
00
00
ENDCHAR

STARTCHAR x
ENCODING 120
SWIDTH 361 0
DWIDTH 6 0
BBX 6 15 0 -3
BITMAP
00
00
00
00
00
6C
6C
38
38
7C
6C
6C
00
00
00
ENDCHAR

STARTCHAR y
ENCODING 121
SWIDTH 361 0
DWIDTH 6 0
BBX 6 15 0 -3
BITMAP
00
00
00
00
00
6C
6C
6C
6C
3C
0C
0C
38
00
00
ENDCHAR

STARTCHAR z
ENCODING 122
SWIDTH 361 0
DWIDTH 6 0
BBX 6 15 0 -3
BITMAP
00
00
00
00
00
7C
0C
18
30
60
60
7C
00
00
00
ENDCHAR

STARTCHAR braceleft
ENCODING 123
SWIDTH 361 0
DWIDTH 6 0
BBX 6 15 0 -3
BITMAP
00
00
18
30
30
18
70
18
30
30
30
18
00
00
00
ENDCHAR

STARTCHAR bar
ENCODING 124
SWIDTH 361 0
DWIDTH 6 0
BBX 6 15 0 -3
BITMAP
00
00
60
60
60
60
60
60
60
60
60
60
00
00
00
ENDCHAR

STARTCHAR braceright
ENCODING 125
SWIDTH 361 0
DWIDTH 6 0
BBX 6 15 0 -3
BITMAP
00
00
30
18
18
30
1C
30
18
18
18
30
00
00
00
ENDCHAR

STARTCHAR asciitilde
ENCODING 126
SWIDTH 361 0
DWIDTH 6 0
BBX 6 15 0 -3
BITMAP
00
00
34
7C
48
00
00
00
00
00
00
00
00
00
00
ENDCHAR

STARTCHAR space
ENCODING 160
SWIDTH 361 0
DWIDTH 6 0
BBX 6 15 0 -3
BITMAP
00
00
00
00
00
00
00
00
00
00
00
00
00
00
00
ENDCHAR

STARTCHAR Aogonek
ENCODING 161
SWIDTH 361 0
DWIDTH 6 0
BBX 6 15 0 -3
BITMAP
00
00
00
10
38
6C
6C
6C
7C
6C
6C
6C
18
0C
00
ENDCHAR

STARTCHAR afii240
ENCODING 162
SWIDTH 368 0
DWIDTH 6 0
BBX 6 15 0 -3
BITMAP
00
00
00
00
00
6C
68
78
70
78
68
6C
00
00
00
ENDCHAR

STARTCHAR Rcommaaccent
ENCODING 163
SWIDTH 368 0
DWIDTH 6 0
BBX 6 15 0 -3
BITMAP
00
00
00
78
6C
6C
6C
6C
78
6C
6C
6C
30
60
00
ENDCHAR

STARTCHAR currency
ENCODING 164
SWIDTH 361 0
DWIDTH 6 0
BBX 6 15 0 -3
BITMAP
00
00
00
44
6C
38
28
28
38
6C
44
00
00
00
00
ENDCHAR

STARTCHAR Itilde
ENCODING 165
SWIDTH 361 0
DWIDTH 6 0
BBX 6 15 0 -3
BITMAP
34
6C
00
3C
18
18
18
18
18
18
18
3C
00
00
00
ENDCHAR

STARTCHAR Lcommaaccent
ENCODING 166
SWIDTH 361 0
DWIDTH 6 0
BBX 6 15 0 -3
BITMAP
00
00
00
30
30
30
30
30
30
30
30
3C
18
30
00
ENDCHAR

STARTCHAR section
ENCODING 167
SWIDTH 361 0
DWIDTH 6 0
BBX 6 15 0 -3
BITMAP
00
00
38
6C
6C
60
78
28
3C
0C
6C
6C
38
00
00
ENDCHAR

STARTCHAR hungarumlaut
ENCODING 168
SWIDTH 361 0
DWIDTH 6 0
BBX 6 15 0 -3
BITMAP
00
00
6C
D8
00
00
00
00
00
00
00
00
00
00
00
ENDCHAR

STARTCHAR Scaron
ENCODING 169
SWIDTH 361 0
DWIDTH 6 0
BBX 6 15 0 -3
BITMAP
38
10
00
38
6C
60
78
3C
0C
6C
6C
38
00
00
00
ENDCHAR

STARTCHAR Emacron
ENCODING 170
SWIDTH 361 0
DWIDTH 6 0
BBX 6 15 0 -3
BITMAP
1C
1C
00
3C
30
30
30
38
30
30
30
3C
00
00
00
ENDCHAR

STARTCHAR Gcommaaccent
ENCODING 171
SWIDTH 361 0
DWIDTH 6 0
BBX 6 15 0 -3
BITMAP
00
00
00
38
6C
6C
60
6C
6C
6C
6C
3C
18
30
00
ENDCHAR

STARTCHAR afii237
ENCODING 172
SWIDTH 361 0
DWIDTH 6 0
BBX 6 15 0 -3
BITMAP
00
00
00
78
30
30
30
78
30
30
30
30
00
00
00
ENDCHAR

STARTCHAR hyphen
ENCODING 173
SWIDTH 361 0
DWIDTH 6 0
BBX 6 15 0 -3
BITMAP
00
00
00
00
00
00
00
38
38
00
00
00
00
00
00
ENDCHAR

STARTCHAR Zcaron
ENCODING 174
SWIDTH 361 0
DWIDTH 6 0
BBX 6 15 0 -3
BITMAP
38
10
00
7C
0C
0C
18
30
60
60
60
7C
00
00
00
ENDCHAR

STARTCHAR macron
ENCODING 175
SWIDTH 361 0
DWIDTH 6 0
BBX 6 15 0 -3
BITMAP
00
00
38
38
00
00
00
00
00
00
00
00
00
00
00
ENDCHAR

STARTCHAR degree
ENCODING 176
SWIDTH 361 0
DWIDTH 6 0
BBX 6 15 0 -3
BITMAP
00
00
30
78
58
78
30
00
00
00
00
00
00
00
00
ENDCHAR

STARTCHAR aogonek
ENCODING 177
SWIDTH 361 0
DWIDTH 6 0
BBX 6 15 0 -3
BITMAP
00
00
00
00
00
38
4C
3C
6C
6C
6C
3C
18
0C
00
ENDCHAR

STARTCHAR ogonek
ENCODING 178
SWIDTH 361 0
DWIDTH 6 0
BBX 6 15 0 -3
BITMAP
00
00
00
00
00
00
00
00
00
00
00
00
30
18
00
ENDCHAR

STARTCHAR rcommaaccent
ENCODING 179
SWIDTH 360 0
DWIDTH 6 0
BBX 6 15 0 -3
BITMAP
00
00
00
00
00
68
7C
6C
60
60
60
60
30
60
00
ENDCHAR

STARTCHAR acute
ENCODING 180
SWIDTH 361 0
DWIDTH 6 0
BBX 6 15 0 -3
BITMAP
00
00
18
30
00
00
00
00
00
00
00
00
00
00
00
ENDCHAR

STARTCHAR itilde
ENCODING 181
SWIDTH 361 0
DWIDTH 6 0
BBX 6 15 0 -3
BITMAP
00
00
68
D8
00
70
30
30
30
30
30
78
00
00
00
ENDCHAR

STARTCHAR lcommaaccent
ENCODING 182
SWIDTH 363 0
DWIDTH 6 0
BBX 6 15 0 -3
BITMAP
00
00
00
70
30
30
30
30
30
30
30
78
30
60
00
ENDCHAR

STARTCHAR caron
ENCODING 183
SWIDTH 361 0
DWIDTH 6 0
BBX 6 15 0 -3
BITMAP
00
00
38
10
00
00
00
00
00
00
00
00
00
00
00
ENDCHAR

STARTCHAR commaaccent
ENCODING 184
SWIDTH 363 0
DWIDTH 6 0
BBX 6 15 0 -3
BITMAP
00
00
00
00
00
00
00
00
00
00
00
00
30
60
00
ENDCHAR

STARTCHAR scaron
ENCODING 185
SWIDTH 361 0
DWIDTH 6 0
BBX 6 15 0 -3
BITMAP
00
00
38
10
00
38
6C
60
38
0C
6C
38
00
00
00
ENDCHAR

STARTCHAR emacron
ENCODING 186
SWIDTH 361 0
DWIDTH 6 0
BBX 6 15 0 -3
BITMAP
00
00
38
38
00
38
6C
6C
7C
60
6C
38
00
00
00
ENDCHAR

STARTCHAR gcommaaccent
ENCODING 187
SWIDTH 361 0
DWIDTH 6 0
BBX 6 15 0 -3
BITMAP
00
00
18
30
00
3C
6C
6C
6C
6C
6C
3C
0C
38
00
ENDCHAR

STARTCHAR afii253
ENCODING 188
SWIDTH 361 0
DWIDTH 6 0
BBX 6 15 0 -3
BITMAP
00
00
00
30
30
78
30
78
30
34
34
18
00
00
00
ENDCHAR

STARTCHAR afii238
ENCODING 189
SWIDTH 361 0
DWIDTH 6 0
BBX 6 15 0 -3
BITMAP
00
00
00
D8
EC
CC
CC
CC
CC
CC
CC
D8
00
00
00
ENDCHAR

STARTCHAR zcaron
ENCODING 190
SWIDTH 361 0
DWIDTH 6 0
BBX 6 15 0 -3
BITMAP
00
00
38
10
00
7C
0C
18
30
60
60
7C
00
00
00
ENDCHAR

STARTCHAR afii254
ENCODING 191
SWIDTH 361 0
DWIDTH 6 0
BBX 6 15 0 -3
BITMAP
00
00
00
00
00
68
7C
6C
6C
6C
6C
6C
0C
38
00
ENDCHAR

STARTCHAR Amacron
ENCODING 192
SWIDTH 361 0
DWIDTH 6 0
BBX 6 15 0 -3
BITMAP
38
38
00
10
38
6C
6C
6C
7C
6C
6C
6C
00
00
00
ENDCHAR

STARTCHAR Aacute
ENCODING 193
SWIDTH 361 0
DWIDTH 6 0
BBX 6 15 0 -3
BITMAP
18
30
00
10
38
6C
6C
6C
7C
6C
6C
6C
00
00
00
ENDCHAR

STARTCHAR Acircumflex
ENCODING 194
SWIDTH 361 0
DWIDTH 6 0
BBX 6 15 0 -3
BITMAP
10
38
00
10
38
6C
6C
6C
7C
6C
6C
6C
00
00
00
ENDCHAR

STARTCHAR Atilde
ENCODING 195
SWIDTH 361 0
DWIDTH 6 0
BBX 6 15 0 -3
BITMAP
34
6C
00
10
38
6C
6C
6C
7C
6C
6C
6C
00
00
00
ENDCHAR

STARTCHAR Adieresis
ENCODING 196
SWIDTH 361 0
DWIDTH 6 0
BBX 6 15 0 -3
BITMAP
6C
6C
00
10
38
6C
6C
6C
7C
6C
6C
6C
00
00
00
ENDCHAR

STARTCHAR Aring
ENCODING 197
SWIDTH 361 0
DWIDTH 6 0
BBX 6 15 0 -3
BITMAP
00
10
28
10
38
6C
6C
6C
7C
6C
6C
6C
00
00
00
ENDCHAR

STARTCHAR AE
ENCODING 198
SWIDTH 361 0
DWIDTH 6 0
BBX 6 15 0 -3
BITMAP
00
00
00
3C
78
D8
D8
DC
F8
D8
D8
DC
00
00
00
ENDCHAR

STARTCHAR Iogonek
ENCODING 199
SWIDTH 361 0
DWIDTH 6 0
BBX 6 15 0 -3
BITMAP
00
00
00
3C
18
18
18
18
18
18
18
3C
18
0C
00
ENDCHAR

STARTCHAR Ccaron
ENCODING 200
SWIDTH 361 0
DWIDTH 6 0
BBX 6 15 0 -3
BITMAP
38
10
00
38
6C
6C
60
60
60
6C
6C
38
00
00
00
ENDCHAR

STARTCHAR Eacute
ENCODING 201
SWIDTH 361 0
DWIDTH 6 0
BBX 6 15 0 -3
BITMAP
0C
18
00
3C
30
30
30
38
30
30
30
3C
00
00
00
ENDCHAR

STARTCHAR Eogonek
ENCODING 202
SWIDTH 361 0
DWIDTH 6 0
BBX 6 15 0 -3
BITMAP
00
00
00
3C
30
30
30
38
30
30
30
3C
18
0C
00
ENDCHAR

STARTCHAR Edieresis
ENCODING 203
SWIDTH 361 0
DWIDTH 6 0
BBX 6 15 0 -3
BITMAP
6C
6C
00
3C
30
30
30
38
30
30
30
3C
00
00
00
ENDCHAR

STARTCHAR Edotaccent
ENCODING 204
SWIDTH 361 0
DWIDTH 6 0
BBX 6 15 0 -3
BITMAP
18
18
00
3C
30
30
30
38
30
30
30
3C
00
00
00
ENDCHAR

STARTCHAR Iacute
ENCODING 205
SWIDTH 361 0
DWIDTH 6 0
BBX 6 15 0 -3
BITMAP
0C
18
00
3C
18
18
18
18
18
18
18
3C
00
00
00
ENDCHAR

STARTCHAR Icircumflex
ENCODING 206
SWIDTH 361 0
DWIDTH 6 0
BBX 6 15 0 -3
BITMAP
08
1C
00
3C
18
18
18
18
18
18
18
3C
00
00
00
ENDCHAR

STARTCHAR Imacron
ENCODING 207
SWIDTH 361 0
DWIDTH 6 0
BBX 6 15 0 -3
BITMAP
1C
1C
00
3C
18
18
18
18
18
18
18
3C
00
00
00
ENDCHAR

STARTCHAR Eth
ENCODING 208
SWIDTH 361 0
DWIDTH 6 0
BBX 6 15 0 -3
BITMAP
00
00
38
34
34
34
7C
34
34
34
34
38
00
00
00
ENDCHAR

STARTCHAR Ncommaaccent
ENCODING 209
SWIDTH 361 0
DWIDTH 6 0
BBX 6 15 0 -3
BITMAP
00
00
00
4C
6C
6C
7C
7C
7C
6C
6C
64
18
30
00
ENDCHAR

STARTCHAR Omacron
ENCODING 210
SWIDTH 361 0
DWIDTH 6 0
BBX 6 15 0 -3
BITMAP
38
38
00
38
6C
6C
6C
6C
6C
6C
6C
38
00
00
00
ENDCHAR

STARTCHAR Kcommaaccent
ENCODING 211
SWIDTH 368 0
DWIDTH 6 0
BBX 6 15 0 -3
BITMAP
00
00
00
6C
6C
6C
78
78
7C
6C
6C
6C
00
18
30
ENDCHAR

STARTCHAR Ocircumflex
ENCODING 212
SWIDTH 361 0
DWIDTH 6 0
BBX 6 15 0 -3
BITMAP
10
38
00
38
6C
6C
6C
6C
6C
6C
6C
38
00
00
00
ENDCHAR

STARTCHAR Otilde
ENCODING 213
SWIDTH 361 0
DWIDTH 6 0
BBX 6 15 0 -3
BITMAP
34
6C
00
38
6C
6C
6C
6C
6C
6C
6C
38
00
00
00
ENDCHAR

STARTCHAR Odieresis
ENCODING 214
SWIDTH 361 0
DWIDTH 6 0
BBX 6 15 0 -3
BITMAP
6C
6C
00
38
6C
6C
6C
6C
6C
6C
6C
38
00
00
00
ENDCHAR

STARTCHAR multiply
ENCODING 215
SWIDTH 361 0
DWIDTH 6 0
BBX 6 15 0 -3
BITMAP
00
00
00
00
00
6C
7C
38
7C
6C
00
00
00
00
00
ENDCHAR

STARTCHAR Oslash
ENCODING 216
SWIDTH 361 0
DWIDTH 6 0
BBX 6 15 0 -3
BITMAP
00
00
04
3C
6C
6C
6C
7C
6C
6C
6C
78
40
00
00
ENDCHAR

STARTCHAR Uogonek
ENCODING 217
SWIDTH 361 0
DWIDTH 6 0
BBX 6 15 0 -3
BITMAP
00
00
00
6C
6C
6C
6C
6C
6C
6C
6C
38
18
0C
00
ENDCHAR

STARTCHAR Uacute
ENCODING 218
SWIDTH 361 0
DWIDTH 6 0
BBX 6 15 0 -3
BITMAP
0C
18
00
6C
6C
6C
6C
6C
6C
6C
6C
38
00
00
00
ENDCHAR

STARTCHAR Ucircumflex
ENCODING 219
SWIDTH 361 0
DWIDTH 6 0
BBX 6 15 0 -3
BITMAP
10
38
00
6C
6C
6C
6C
6C
6C
6C
6C
38
00
00
00
ENDCHAR

STARTCHAR Udieresis
ENCODING 220
SWIDTH 361 0
DWIDTH 6 0
BBX 6 15 0 -3
BITMAP
6C
6C
00
6C
6C
6C
6C
6C
6C
6C
6C
38
00
00
00
ENDCHAR

STARTCHAR Utilde
ENCODING 221
SWIDTH 361 0
DWIDTH 6 0
BBX 6 15 0 -3
BITMAP
34
6C
00
6C
6C
6C
6C
6C
6C
6C
6C
38
00
00
00
ENDCHAR

STARTCHAR Umacron
ENCODING 222
SWIDTH 361 0
DWIDTH 6 0
BBX 6 15 0 -3
BITMAP
38
38
00
6C
6C
6C
6C
6C
6C
6C
6C
38
00
00
00
ENDCHAR

STARTCHAR germandbls
ENCODING 223
SWIDTH 361 0
DWIDTH 6 0
BBX 6 15 0 -3
BITMAP
00
00
00
38
6C
6C
78
6C
6C
6C
6C
78
00
00
00
ENDCHAR

STARTCHAR amacron
ENCODING 224
SWIDTH 361 0
DWIDTH 6 0
BBX 6 15 0 -3
BITMAP
00
00
38
38
00
38
4C
3C
6C
6C
6C
3C
00
00
00
ENDCHAR

STARTCHAR aacute
ENCODING 225
SWIDTH 361 0
DWIDTH 6 0
BBX 6 15 0 -3
BITMAP
00
00
0C
18
00
38
4C
3C
6C
6C
6C
3C
00
00
00
ENDCHAR

STARTCHAR acircumflex
ENCODING 226
SWIDTH 361 0
DWIDTH 6 0
BBX 6 15 0 -3
BITMAP
00
00
10
38
00
38
4C
3C
6C
6C
6C
3C
00
00
00
ENDCHAR

STARTCHAR atilde
ENCODING 227
SWIDTH 361 0
DWIDTH 6 0
BBX 6 15 0 -3
BITMAP
00
00
34
6C
00
38
4C
3C
6C
6C
6C
3C
00
00
00
ENDCHAR

STARTCHAR adieresis
ENCODING 228
SWIDTH 361 0
DWIDTH 6 0
BBX 6 15 0 -3
BITMAP
00
00
6C
6C
00
38
4C
3C
6C
6C
6C
3C
00
00
00
ENDCHAR

STARTCHAR aring
ENCODING 229
SWIDTH 361 0
DWIDTH 6 0
BBX 6 15 0 -3
BITMAP
00
00
10
28
10
38
4C
3C
6C
6C
6C
3C
00
00
00
ENDCHAR

STARTCHAR ae
ENCODING 230
SWIDTH 361 0
DWIDTH 6 0
BBX 6 15 0 -3
BITMAP
00
00
00
00
00
78
B4
74
BC
B0
B4
58
00
00
00
ENDCHAR

STARTCHAR iogonek
ENCODING 231
SWIDTH 350 0
DWIDTH 6 0
BBX 6 15 0 -3
BITMAP
00
00
18
18
00
38
18
18
18
18
18
3C
18
0C
00
ENDCHAR

STARTCHAR ccaron
ENCODING 232
SWIDTH 361 0
DWIDTH 6 0
BBX 6 15 0 -3
BITMAP
00
00
38
10
00
38
6C
6C
60
6C
6C
38
00
00
00
ENDCHAR

STARTCHAR eacute
ENCODING 233
SWIDTH 361 0
DWIDTH 6 0
BBX 6 15 0 -3
BITMAP
00
00
0C
18
00
38
6C
6C
7C
60
6C
38
00
00
00
ENDCHAR

STARTCHAR eogonek
ENCODING 234
SWIDTH 361 0
DWIDTH 6 0
BBX 6 15 0 -3
BITMAP
00
00
00
00
00
38
6C
6C
7C
60
6C
38
18
0C
00
ENDCHAR

STARTCHAR edieresis
ENCODING 235
SWIDTH 361 0
DWIDTH 6 0
BBX 6 15 0 -3
BITMAP
00
00
6C
6C
00
38
6C
6C
7C
60
6C
38
00
00
00
ENDCHAR

STARTCHAR edotaccent
ENCODING 236
SWIDTH 361 0
DWIDTH 6 0
BBX 6 15 0 -3
BITMAP
00
00
18
18
00
38
6C
6C
7C
60
6C
38
00
00
00
ENDCHAR

STARTCHAR iacute
ENCODING 237
SWIDTH 361 0
DWIDTH 6 0
BBX 6 15 0 -3
BITMAP
00
00
0C
18
00
38
18
18
18
18
18
3C
00
00
00
ENDCHAR

STARTCHAR icircumflex
ENCODING 238
SWIDTH 361 0
DWIDTH 6 0
BBX 6 15 0 -3
BITMAP
00
00
10
38
00
38
18
18
18
18
18
3C
00
00
00
ENDCHAR

STARTCHAR imacron
ENCODING 239
SWIDTH 361 0
DWIDTH 6 0
BBX 6 15 0 -3
BITMAP
00
00
38
38
00
38
18
18
18
18
18
3C
00
00
00
ENDCHAR

STARTCHAR dcroat
ENCODING 240
SWIDTH 361 0
DWIDTH 6 0
BBX 6 15 0 -3
BITMAP
00
00
00
90
60
70
98
3C
6C
6C
6C
38
00
00
00
ENDCHAR

STARTCHAR ncommaaccent
ENCODING 241
SWIDTH 361 0
DWIDTH 6 0
BBX 6 15 0 -3
BITMAP
00
00
00
00
00
68
7C
6C
6C
6C
6C
6C
18
30
00
ENDCHAR

STARTCHAR omacron
ENCODING 242
SWIDTH 361 0
DWIDTH 6 0
BBX 6 15 0 -3
BITMAP
00
00
38
38
00
38
6C
6C
6C
6C
6C
38
00
00
00
ENDCHAR

STARTCHAR kcommaaccent
ENCODING 243
SWIDTH 368 0
DWIDTH 6 0
BBX 6 15 0 -3
BITMAP
00
00
00
C0
C0
CC
D8
F0
F0
F0
D8
CC
30
60
00
ENDCHAR

STARTCHAR ocircumflex
ENCODING 244
SWIDTH 361 0
DWIDTH 6 0
BBX 6 15 0 -3
BITMAP
00
00
10
38
00
38
6C
6C
6C
6C
6C
38
00
00
00
ENDCHAR

STARTCHAR otilde
ENCODING 245
SWIDTH 361 0
DWIDTH 6 0
BBX 6 15 0 -3
BITMAP
00
00
34
6C
00
38
6C
6C
6C
6C
6C
38
00
00
00
ENDCHAR

STARTCHAR odieresis
ENCODING 246
SWIDTH 361 0
DWIDTH 6 0
BBX 6 15 0 -3
BITMAP
00
00
6C
6C
00
38
6C
6C
6C
6C
6C
38
00
00
00
ENDCHAR

STARTCHAR divide
ENCODING 247
SWIDTH 361 0
DWIDTH 6 0
BBX 6 15 0 -3
BITMAP
00
00
00
00
00
10
00
7C
7C
00
10
00
00
00
00
ENDCHAR

STARTCHAR oslash
ENCODING 248
SWIDTH 361 0
DWIDTH 6 0
BBX 6 15 0 -3
BITMAP
00
00
00
00
04
3C
6C
6C
7C
6C
6C
78
40
00
00
ENDCHAR

STARTCHAR uogonek
ENCODING 249
SWIDTH 363 0
DWIDTH 6 0
BBX 6 15 0 -3
BITMAP
00
00
00
00
00
6C
6C
6C
6C
6C
6C
38
18
0C
00
ENDCHAR

STARTCHAR uacute
ENCODING 250
SWIDTH 361 0
DWIDTH 6 0
BBX 6 15 0 -3
BITMAP
00
00
18
30
00
6C
6C
6C
6C
6C
6C
38
00
00
00
ENDCHAR

STARTCHAR ucircumflex
ENCODING 251
SWIDTH 361 0
DWIDTH 6 0
BBX 6 15 0 -3
BITMAP
00
00
10
38
00
6C
6C
6C
6C
6C
6C
38
00
00
00
ENDCHAR

STARTCHAR udieresis
ENCODING 252
SWIDTH 361 0
DWIDTH 6 0
BBX 6 15 0 -3
BITMAP
00
00
6C
6C
00
6C
6C
6C
6C
6C
6C
38
00
00
00
ENDCHAR

STARTCHAR utilde
ENCODING 253
SWIDTH 361 0
DWIDTH 6 0
BBX 6 15 0 -3
BITMAP
00
00
34
6C
00
6C
6C
6C
6C
6C
6C
38
00
00
00
ENDCHAR

STARTCHAR umacron
ENCODING 254
SWIDTH 361 0
DWIDTH 6 0
BBX 6 15 0 -3
BITMAP
00
00
38
38
00
6C
6C
6C
6C
6C
6C
38
00
00
00
ENDCHAR

STARTCHAR dotaccent
ENCODING 255
SWIDTH 361 0
DWIDTH 6 0
BBX 6 15 0 -3
BITMAP
00
00
30
30
00
00
00
00
00
00
00
00
00
00
00
ENDCHAR
ENDFONT
